# xmcd CD database file
# Generated: Wed Feb 5 13:06:49 2003 by KSCD
# 
# Track frame offsets:
#       150
#       23847
#       40844
#       57921
#       89173
#       116771
#       134475
#       146995
#       180165
#       204295
#       225974
#       239654
#
# Disc length: 3545 seconds
#
# Revision: 18
# Processed by: cddbd v1.4PL0 Copyright (c) Steve Scherf et al.
# Submitted via: Kscd 1.3.3
#
DISCID=a70dd70c
DTITLE=Dana Lyons - Cows with Guns
DYEAR=1900
DGENRE=
TTITLE0=Cows with Guns
TTITLE1=RV
TTITLE2=TV God
TTITLE3=Turn of the Wrench
TTITLE4=My Country
TTITLE5=Swimming in the Big
TTITLE6=Lubricate the Red, White and Blue
TTITLE7=A Drop of Water
TTITLE8=Willie Says
TTITLE9=I am an Animal
TTITLE10=Recycle Wrap
TTITLE11=The Tree
EXTD=
EXTT0=
EXTT1=
EXTT2=
EXTT3=
EXTT4=
EXTT5=
EXTT6=
EXTT7=
EXTT8=
EXTT9=
EXTT10=
EXTT11=
PLAYORDER=
